<svg width="2346" height="2030" viewBox="0 0 2346 2030" fill="none" xmlns="http://www.w3.org/2000/svg">
<rect x="1664" y="1052" width="681.486" height="712" rx="88" fill="#F5EDE8"/>
<g opacity="0.9">
<path d="M1893.13 1379.48C1893.13 1379.48 1891.65 1379.48 1890.61 1378.59C1889.87 1378 1889.43 1377.11 1889.28 1376.67C1889.28 1351.32 1889.28 1325.82 1889.28 1300.47C1889.28 1294.69 1892.39 1291.13 1897.73 1291.13H2114.76C2119.65 1290.98 2123.06 1294.39 2123.06 1299.73C2123.06 1325.23 2123.06 1350.72 2123.06 1376.22C2123.06 1376.37 2122.76 1378.3 2121.28 1379.19C2119.65 1380.08 2118.17 1379.19 2118.02 1379.19C2082 1368.81 2045.97 1358.43 2009.8 1348.06C2008.91 1347.76 2007.73 1347.46 2006.39 1347.46C2005.06 1347.46 2003.58 1347.61 2002.09 1348.2C1965.77 1358.73 1929.45 1369.25 1892.98 1379.78L1893.13 1379.48Z" fill="#213036"/>
<path d="M2039.6 1277.5C2038.56 1278.69 2037.23 1278.69 2036.93 1278.69C2016.62 1278.69 1996.31 1278.69 1976 1278.69C1975.56 1278.69 1974.37 1278.54 1973.33 1277.5C1972.15 1276.32 1971.85 1274.69 1971.85 1274.24C1971.85 1265.2 1971.85 1256.01 1971.85 1246.96C1971.85 1245.63 1972.3 1234.36 1980.75 1228.14C1983.86 1225.91 1987.57 1224.58 1991.72 1224.58H2021.96C2032.78 1225.47 2040.64 1235.1 2040.49 1246.96C2040.49 1256.15 2040.49 1265.35 2040.49 1274.54C2040.49 1274.83 2040.49 1276.32 2039.45 1277.5H2039.6Z" fill="#213036"/>
<path d="M2164.12 1545.11C2153.6 1538.88 2142.48 1535.32 2129.88 1535.32L2171.54 1419.54C2172.72 1415.24 2171.09 1410.65 2166.79 1409.31L2006.39 1363.06L1845.84 1409.31C1841.54 1410.5 1839.91 1415.1 1841.1 1419.4L1857.11 1464.61L1859.33 1470.69L1882.61 1535.32C1870.01 1535.32 1859.04 1538.88 1848.36 1545.11C1840.65 1549.7 1832.65 1552.22 1823.9 1552.08C1817.82 1551.78 1813.97 1556.08 1811.75 1561.56V1568.23C1812.34 1572.53 1813.52 1574.9 1816.93 1576.98C1825.53 1582.17 1843.47 1576.68 1852.36 1572.68C1869.56 1562.01 1886.16 1558.15 1905.44 1567.05C1927.82 1581.28 1952.87 1582.47 1976.59 1571.64C1993.05 1560.67 2009.65 1559.19 2027 1566.9C2052.94 1583.65 2083.63 1582.47 2109.42 1566.01C2128.55 1558.15 2144.26 1562.9 2161.31 1573.27C2170.2 1576.98 2189.47 1582.91 2197.33 1575.79C2199.85 1573.42 2200.3 1571.64 2200.89 1568.09V1561.71C2193.33 1544.66 2187.25 1558.75 2164.27 1545.11H2164.12ZM2119.8 1442.37C2118.46 1448.45 2112.83 1453.64 2106.01 1451.71L2006.24 1423.1L1906.62 1451.71C1900.25 1453.49 1894.32 1449.34 1892.69 1443.11C1891.06 1436.59 1894.17 1429.48 1900.69 1427.55L2006.09 1397.16L2111.5 1427.55C2117.72 1429.33 2120.84 1436.15 2119.65 1442.52L2119.8 1442.37Z" fill="#1D3137"/>
</g>
<rect x="1664" y="1052" width="681.486" height="712" rx="88" fill="#518A48"/>
<g opacity="0.9">
<path d="M1876.24 1390.89C1876.24 1390.89 1874.61 1390.89 1873.46 1389.91C1872.64 1389.25 1872.15 1388.27 1871.99 1387.78C1871.99 1359.82 1871.99 1331.69 1871.99 1303.72C1871.99 1297.34 1875.42 1293.42 1881.31 1293.42H2120.73C2126.13 1293.26 2129.89 1297.02 2129.89 1302.9C2129.89 1331.03 2129.89 1359.16 2129.89 1387.29C2129.89 1387.45 2129.56 1389.58 2127.93 1390.56C2126.13 1391.54 2124.49 1390.56 2124.33 1390.56C2084.59 1379.11 2044.85 1367.67 2004.95 1356.22C2003.97 1355.89 2002.66 1355.56 2001.19 1355.56C1999.71 1355.56 1998.08 1355.73 1996.44 1356.38C1956.38 1367.99 1916.31 1379.6 1876.08 1391.22L1876.24 1390.89Z" fill="white"/>
<path d="M2037.82 1278.38C2036.67 1279.69 2035.2 1279.69 2034.88 1279.69C2012.47 1279.69 1990.07 1279.69 1967.66 1279.69C1967.17 1279.69 1965.86 1279.53 1964.72 1278.38C1963.41 1277.08 1963.08 1275.28 1963.08 1274.79C1963.08 1264.81 1963.08 1254.67 1963.08 1244.69C1963.08 1243.22 1963.57 1230.79 1972.89 1223.92C1976.33 1221.47 1980.42 1220 1985 1220H2018.36C2030.3 1220.98 2038.96 1231.61 2038.8 1244.69C2038.8 1254.83 2038.8 1264.97 2038.8 1275.11C2038.8 1275.44 2038.8 1277.08 2037.66 1278.38H2037.82Z" fill="white"/>
<path d="M2175.19 1573.6C2163.58 1566.73 2151.31 1562.81 2137.41 1562.81L2183.37 1435.08C2184.68 1430.34 2182.88 1425.27 2178.13 1423.8L2001.18 1372.77L1824.07 1423.8C1819.33 1425.11 1817.53 1430.18 1818.84 1434.92L1836.5 1484.8L1838.95 1491.5L1864.63 1562.81C1850.73 1562.81 1838.63 1566.73 1826.85 1573.6C1818.35 1578.67 1809.52 1581.45 1799.87 1581.29C1793.16 1580.96 1788.91 1585.7 1786.46 1591.75V1599.11C1787.11 1603.85 1788.42 1606.47 1792.18 1608.76C1801.67 1614.48 1821.45 1608.43 1831.27 1604.02C1850.24 1592.24 1868.55 1587.99 1889.81 1597.8C1914.51 1613.5 1942.15 1614.81 1968.31 1602.87C1986.47 1590.77 2004.78 1589.14 2023.92 1597.64C2052.54 1616.12 2086.39 1614.81 2114.84 1596.66C2135.94 1587.99 2153.28 1593.22 2172.08 1604.67C2181.9 1608.76 2203.16 1615.3 2211.82 1607.45C2214.6 1604.84 2215.09 1602.87 2215.75 1598.95V1591.92C2207.41 1573.11 2200.7 1588.65 2175.35 1573.6H2175.19ZM2126.29 1460.27C2124.82 1466.97 2118.61 1472.7 2111.08 1470.57L2001.02 1439.01L1891.12 1470.57C1884.09 1472.53 1877.55 1467.95 1875.75 1461.08C1873.95 1453.89 1877.39 1446.04 1884.58 1443.91L2000.86 1410.39L2117.13 1443.91C2124 1445.88 2127.44 1453.4 2126.13 1460.43L2126.29 1460.27Z" fill="white"/>
</g>
<rect width="681.486" height="712" rx="88" fill="#9D6D0A"/>
<path d="M360.486 252.901L307.153 307.546C305.703 308.836 302.642 311.092 297.969 311.898C290.879 313.188 285.401 309.642 284.112 308.836C247.858 289.17 211.766 269.343 175.512 249.677C171.806 248.065 166.65 245.325 161.011 240.812C154.888 235.976 151.182 233.074 148.926 227.755C148.604 227.11 144.898 217.116 149.732 209.056C155.371 199.707 168.423 199.062 179.702 198.579C190.336 198.095 199.037 199.868 204.354 201.319C226.59 206.477 248.825 211.797 271.061 216.955C273.478 211.797 277.184 205.188 283.306 198.579C289.913 191.486 296.197 184.877 304.253 185.845C309.57 186.489 315.049 190.197 317.143 195.355C320.205 202.77 315.21 211.474 309.087 221.952C307.314 225.015 305.703 227.433 304.575 228.883C315.693 231.14 326.811 233.236 337.929 235.492C353.719 238.555 354.041 238.716 354.203 238.716C361.453 240.167 363.226 243.391 363.226 243.391C364.515 245.97 363.387 249.839 360.648 253.063L360.486 252.901Z" fill="white"/>
<path d="M220.145 424.902C292.813 349.624 365.482 274.507 438.312 199.23C446.046 191.331 453.78 183.433 461.514 175.534L480.849 161.027C497.768 152.645 515.975 155.224 524.354 165.218C529.671 171.504 532.249 182.304 531.282 191.492C530.315 201.648 526.287 209.869 493.739 246.137C476.499 265.481 469.248 274.185 454.908 291.755C447.657 300.621 445.723 303.2 443.79 307.713C439.439 318.352 439.278 329.797 447.979 361.713C451.524 374.609 456.68 391.212 463.931 410.555C471.504 405.236 479.238 399.755 486.811 394.275C494.062 390.567 502.601 391.373 507.919 396.209C514.847 402.496 515.33 415.069 507.435 423.451C496.64 431.994 485.844 440.537 475.049 448.92C479.077 460.687 482.944 474.388 485.683 490.024C487.133 498.89 488.1 507.272 488.744 515.009C488.744 515.654 486.65 528.066 475.693 532.741C466.348 536.77 454.424 533.063 447.979 523.391C441.856 513.881 436.861 506.627 433.155 501.63C431.061 498.729 428.16 494.699 424.132 488.896C422.199 485.994 419.782 482.448 416.72 477.773C406.569 461.976 387.879 431.511 365.321 391.051C332.773 417.325 300.225 443.439 267.678 469.714C267.678 470.52 271.545 504.693 271.545 505.499C271.545 506.143 274.928 537.254 275.089 537.899C275.089 538.866 275.089 539.994 274.928 541.445C274.767 542.735 274.445 543.702 274.123 544.669C273.639 545.636 269.772 551.923 262.038 553.212C255.754 554.341 249.148 551.439 245.281 546.12C239.48 534.191 233.841 522.102 228.04 510.173C227.396 509.206 226.107 507.272 223.851 505.821C221.917 504.693 220.145 504.209 219.017 503.887C213.378 503.403 207.577 502.758 201.938 502.114C201.132 502.114 196.782 502.114 193.559 498.406C189.853 494.215 190.82 489.057 190.981 488.412V479.869C190.981 478.902 190.82 477.451 190.014 475.839C189.37 474.388 188.564 473.421 187.92 472.937C174.224 463.749 160.689 454.723 146.993 445.534C143.287 440.537 142.965 433.767 146.349 428.448C149.732 422.967 156.5 420.227 162.945 421.839C170.84 422.161 183.73 422.806 191.625 423.29C199.521 423.612 212.411 424.257 220.306 424.74L220.145 424.902Z" fill="white"/>
<rect y="1052" width="681.486" height="712" rx="88" fill="#2C2DAE"/>
<rect x="832" y="1052" width="680" height="710.448" rx="88" fill="#6338BC"/>
<path d="M1185.63 1393.04C1188.39 1388.89 1191.68 1386.3 1194.1 1384.74C1204.65 1379.21 1346.25 1304.86 1364.23 1303.83C1371.66 1303.31 1376.16 1306.77 1376.16 1306.77C1380.83 1310.22 1382.21 1315.93 1382.73 1319.73C1381.69 1388.72 1380.83 1457.53 1379.79 1526.52C1380.14 1530.49 1379.79 1536.03 1376.33 1540.52C1373.57 1544.33 1369.76 1545.88 1368.73 1546.4C1344 1557.12 1321.01 1571.64 1296.45 1582.88C1263.09 1598.27 1226.26 1618.15 1203.26 1630.08C1196.69 1633.54 1189.09 1632.85 1184.42 1628.7C1180.79 1625.41 1179.92 1620.75 1179.75 1619.19C1178.89 1505.25 1179.23 1421.91 1179.75 1411.2C1180.27 1403.41 1183.38 1396.15 1185.46 1393.04H1185.63Z" fill="white"/>
<path d="M1158.83 1392.7C1162.81 1398.41 1162.81 1404.63 1162.81 1407.4C1162.81 1416.56 1162.98 1502.84 1162.81 1621.62C1162.81 1624.38 1161.08 1630.44 1156.41 1633.03C1150.36 1636.31 1141.89 1631.82 1137.39 1629.05C1134.63 1627.67 1100.22 1610.21 1062.87 1591.36C1044.55 1582.03 981.266 1550.04 963.112 1540.7C962.075 1464.8 961.037 1388.9 960 1313C960.519 1308.16 963.458 1304.18 967.607 1302.45C971.93 1300.72 975.734 1302.45 976.598 1302.8C978.327 1303.66 993.196 1310.75 995.098 1311.62C1001.15 1314.55 1024.32 1325.45 1030.37 1328.39C1028.99 1357.95 1027.6 1387.52 1026.22 1417.08C1025.7 1420.02 1027.26 1422.61 1029.33 1423.13C1031.23 1423.65 1032.96 1422.44 1033.14 1422.27C1040.74 1415.18 1048.18 1408.26 1055.78 1401.18C1063.05 1412.07 1070.48 1422.96 1077.74 1433.85C1078.61 1436.45 1081.37 1437.66 1083.62 1436.79C1085.52 1436.1 1086.73 1433.85 1086.21 1431.61C1086.56 1406.19 1086.91 1380.77 1087.25 1355.36C1087.94 1355.7 1088.98 1356.05 1090.19 1356.57C1093.13 1357.78 1096.07 1359.16 1099.01 1360.37C1117.34 1368.5 1134.97 1377.14 1151.57 1385.79C1153.47 1386.82 1156.24 1388.9 1158.66 1392.36L1158.83 1392.7Z" fill="white"/>
<path d="M1231.45 1219.11C1231.45 1223.09 1228.85 1225.51 1228.33 1225.86C1199.63 1239.69 1170.76 1253.69 1142.06 1267.52C1108.52 1283.78 1074.98 1300.03 1041.43 1316.28C1020.86 1306.77 1000.46 1297.09 979.883 1287.58C977.289 1286.54 975.56 1284.3 975.387 1281.7C975.042 1278.42 977.635 1275.13 981.439 1274.27C1010.66 1260.61 1040.05 1246.95 1069.27 1233.46C1100.05 1219.11 1130.82 1204.76 1161.77 1190.41C1163.67 1189.55 1167.48 1187.99 1172.32 1187.99C1177.33 1187.99 1181.13 1189.72 1183.04 1190.59C1203.78 1200.09 1228.51 1212.02 1228.51 1212.02C1228.85 1212.37 1231.62 1214.79 1231.62 1218.94L1231.45 1219.11Z" fill="white"/>
<path d="M1364.41 1281.01C1364.58 1284.29 1362.85 1287.41 1359.91 1288.96C1265.68 1334.09 1196.7 1366.25 1186.15 1370.4C1184.07 1371.26 1179.23 1372.99 1172.84 1373.16C1165.92 1373.33 1160.39 1371.61 1157.28 1370.4C1146.38 1366.07 1138.43 1362.1 1133.42 1359.33C1126.85 1355.7 1117.16 1350.69 1104.37 1345.84C1102.47 1344.63 1102.12 1343.08 1102.12 1342.73C1101.6 1340.14 1104.02 1336.68 1108.35 1335.47C1168 1307.29 1227.64 1279.28 1287.29 1251.1C1289.02 1250.06 1291.96 1248.5 1296.11 1247.98C1301.47 1247.29 1305.79 1248.85 1307.7 1249.71C1324.64 1257.67 1341.58 1265.62 1358.53 1273.75C1360.6 1274.96 1363.89 1277.55 1364.23 1281.18L1364.41 1281.01Z" fill="white"/>
<rect x="832" width="680" height="710.448" rx="88" fill="#881633"/>
<g clip-path="url(#clip0_6467_1482)">
<path d="M1117.97 542.61C1114.9 540.361 1115.01 536.546 1115.03 536.227C1113.82 486.12 1114.37 447.47 1115.34 427.289C1115.62 421.487 1116.28 410.663 1123.27 400.421C1129.39 391.455 1137.56 387.062 1140.93 385.295C1158.04 376.33 1256.14 325.436 1391.41 256.147C1392.2 256.015 1398.35 255.086 1403.33 259.501C1407.59 263.291 1407.96 268.328 1408.01 269.308C1407.11 307.834 1406.21 346.36 1405.31 384.889C1405.43 387.143 1405.45 392.882 1401.92 398.867C1398.77 404.207 1394.45 406.951 1392.45 408.059C1303.9 452.909 1215.35 497.764 1126.81 542.614C1124.04 544.472 1120.48 544.45 1117.98 542.614L1117.97 542.61Z" fill="white"/>
<path d="M939.336 460.572C937.368 456.442 936.818 452.7 936.66 450.351V390.243C936.041 373.581 935.551 350.723 936.66 334.404C936.723 333.494 937.187 328.014 941.986 324.184C946.188 320.83 950.865 321.013 951.964 321.082C995.733 343.959 1039.5 366.836 1083.27 389.713C1086.1 392.885 1089.52 397.395 1092.37 403.332C1096.77 412.513 1097.83 420.923 1098.05 426.201C1099.2 453.483 1098.35 484.959 1098.05 505.931C1097.96 512.277 1097.91 521.843 1098.25 533.589C1098.28 534.075 1098.4 537.964 1095.31 540.597C1092.77 542.756 1089.08 543.213 1085.89 541.764C1038.91 517.329 991.918 492.894 944.931 468.458C943.331 466.867 941.105 464.274 939.34 460.572H939.336Z" fill="white"/>
<path d="M1391.32 222.729C1346.01 199.683 1300.71 176.642 1255.4 153.6C1252.77 152.803 1248.91 151.943 1244.2 151.994C1239.05 152.049 1234.92 153.165 1232.21 154.123C1144.98 198.776 1057.75 243.433 970.521 288.086C965.288 288.642 961.075 292.453 960.168 297.311C959.398 301.445 961.134 305.75 964.617 308.417C1006.2 331.031 1047.79 353.648 1089.37 376.261C1091.8 377.973 1096.94 381.086 1104.12 381.701C1115.73 382.688 1124 376.408 1125.92 374.864C1214.04 328.821 1302.15 282.778 1390.27 236.735C1390.57 236.618 1394.36 235.067 1395.21 231.131C1395.89 227.941 1394.34 224.536 1391.32 222.729ZM1118.86 310.959C1117.18 324.852 1100.71 334.315 1082.09 332.091C1063.46 329.867 1049.73 316.801 1051.41 302.904C1053.1 289.011 1069.56 279.552 1088.19 281.772C1106.81 283.996 1120.55 297.063 1118.86 310.959ZM1211.4 264.616C1209.72 278.509 1193.25 287.972 1174.63 285.748C1156 283.524 1142.27 270.458 1143.95 256.565C1145.64 242.668 1162.1 233.209 1180.73 235.433C1199.35 237.657 1213.09 250.723 1211.4 264.616ZM1294.89 218.837C1293.21 232.733 1276.74 242.193 1258.12 239.969C1239.49 237.745 1225.76 224.678 1227.44 210.785C1229.12 196.892 1245.59 187.429 1264.22 189.653C1282.84 191.877 1296.58 204.944 1294.89 218.837Z" fill="white"/>
</g>
<path d="M476.193 1284.21C474.389 1285.69 472.258 1285.36 471.93 1285.36H191.215C191.215 1285.36 188.427 1285.03 186.624 1283.23C184.82 1281.43 184.492 1279.3 184.492 1278.64V1250.11C184.492 1250.11 184.984 1247.49 186.624 1245.85C188.263 1244.21 190.231 1243.71 190.887 1243.71H210.563C210.563 1238.47 210.399 1234.04 209.907 1230.6C209.907 1230.6 209.415 1217.32 209.907 1206.82C209.907 1206.33 210.071 1203.38 212.695 1201.41C214.99 1199.77 217.45 1199.93 217.942 1200.1C225.32 1200.1 232.863 1200.1 240.242 1200.1C248.44 1200.1 256.639 1200.26 265.001 1200.26C273.855 1200.26 282.71 1200.26 291.4 1200.26C342.23 1200.26 393.225 1200.26 444.055 1200.26C444.547 1200.26 448.154 1200.26 450.614 1203.05C452.09 1204.85 452.418 1206.99 452.418 1207.64C452.909 1218.96 452.418 1228.79 452.418 1228.79C452.09 1232.4 451.762 1237.65 452.09 1243.88H472.75C472.75 1243.88 475.209 1244.21 476.685 1246.17C478.161 1248.14 477.833 1250.44 477.833 1250.93C477.833 1260.28 477.833 1269.46 477.833 1278.8C478.325 1280.94 477.669 1283.07 476.029 1284.38L476.193 1284.21Z" fill="white"/>
<path d="M424.674 1612.02C421.067 1614.81 416.804 1614.64 415.328 1614.64C407.294 1614.64 337.443 1614.64 241.357 1614.64C240.537 1614.64 236.274 1615.46 232.339 1612.35C228.239 1609.23 227.748 1604.8 227.748 1603.98C218.237 1504.29 208.891 1404.6 199.381 1304.9C199.709 1303.92 200.529 1301.79 202.824 1300.15C204.136 1299.17 205.448 1298.67 206.268 1298.51C287.596 1298.51 368.761 1298.51 450.089 1298.51C452.549 1298.02 455.009 1298.67 456.484 1300.48C458.124 1302.44 457.796 1304.74 457.796 1305.23C448.286 1405.09 438.94 1505.11 429.429 1604.97C429.101 1606.12 427.954 1609.39 424.838 1611.69L424.674 1612.02Z" fill="white"/>
<rect x="1664" width="681.486" height="712" rx="88" fill="#AED2F4"/>
<rect x="1664" width="681.486" height="712" rx="88" fill="#117579"/>
<path d="M2220.35 263.065C2220.35 233.418 2207.06 215.868 2180.65 204.623L2030.71 141.239C2014.01 134.254 1998.34 134.254 1981.64 141.239L1832.55 204.282C1805.63 215.698 1792 232.907 1792 263.235V549.823C1791.83 558.854 1799.5 564.817 1807.68 564.817H1849.25C1858.11 564.817 1864.93 557.831 1864.93 548.631V322.87C1864.93 319.633 1866.12 316.736 1867.82 315.543C1869.36 314.351 1871.74 313.84 1874.64 313.84H2138.4C2142.31 313.84 2144.53 314.862 2145.55 316.055C2146.74 317.418 2147.6 320.314 2147.6 323.04V548.801C2147.6 558.002 2154.41 564.988 2163.27 564.988H2204.85C2213.02 564.988 2220.69 559.024 2220.69 549.994V263.406L2220.35 263.065ZM2042.3 235.803C2042.3 237.507 2041.96 240.744 2040.08 243.982C2035.31 251.308 2025.6 250.967 2025.09 250.797H1984.88C1976.02 250.627 1969.71 243.471 1969.54 235.292C1969.54 227.454 1975.51 220.298 1983.52 219.617H2028.67C2029.69 219.617 2035.48 220.639 2039.23 225.921C2042.3 230.18 2042.3 234.61 2042.13 235.974L2042.3 235.803Z" fill="white"/>
<path d="M2040.08 225.748C2038.72 224.556 2037.53 223.193 2036.16 222Z" fill="white"/>
<path d="M2104.04 386.996V541.173C2104.04 551.519 2095.55 560 2085.2 560H1930.89C1920.53 560 1912.04 551.519 1912.04 541.173V386.996C1912.04 376.65 1920.53 368.17 1930.89 368.17H1965.35C1965.35 368.17 1967.72 368.17 1969.25 369.866C1970.95 371.731 1970.78 373.936 1970.78 374.276C1970.78 405.315 1970.78 436.353 1970.78 467.223C1970.27 468.41 1970.78 469.767 1971.46 470.445C1972.65 471.463 1974.52 471.293 1975.7 469.767C1985.55 460.777 1995.4 451.618 2005.24 442.629C2014.92 451.618 2024.59 460.438 2034.44 469.428C2035.29 470.445 2036.82 470.784 2038.01 470.276C2039.36 469.767 2040.04 468.41 2039.7 466.883V375.293C2039.7 375.293 2039.7 371.901 2042.08 369.696C2044.12 368 2046.32 368 2046.83 368H2085.03C2086.22 368 2093.01 368 2098.27 373.597C2103.53 379.194 2103.87 385.64 2103.87 386.827L2104.04 386.996Z" fill="white"/>
<path d="M203.935 931.86C197.012 931.86 190.708 930.62 185.025 928.14C179.445 925.557 175.002 921.733 171.695 916.67C168.388 911.607 166.632 905.303 166.425 897.76H179.6C179.703 901.893 180.685 905.717 182.545 909.23C184.508 912.64 187.298 915.378 190.915 917.445C194.532 919.512 198.872 920.545 203.935 920.545C208.998 920.545 213.235 919.563 216.645 917.6C220.055 915.637 222.638 913.053 224.395 909.85C226.152 906.543 227.03 902.875 227.03 898.845C227.03 893.782 225.79 889.648 223.31 886.445C220.933 883.242 217.678 880.865 213.545 879.315C209.515 877.765 205.072 876.99 200.215 876.99H192.155V865.985H200.215C207.242 865.985 212.718 864.383 216.645 861.18C220.675 857.873 222.69 853.378 222.69 847.695C222.69 842.838 221.14 838.86 218.04 835.76C214.94 832.557 210.238 830.955 203.935 830.955C197.942 830.955 193.137 832.712 189.52 836.225C186.007 839.738 183.992 844.233 183.475 849.71H170.3C170.61 843.82 172.16 838.602 174.95 834.055C177.843 829.508 181.77 825.995 186.73 823.515C191.69 820.932 197.425 819.64 203.935 819.64C210.962 819.64 216.8 820.88 221.45 823.36C226.203 825.84 229.768 829.147 232.145 833.28C234.625 837.413 235.865 841.96 235.865 846.92C235.865 850.537 235.193 853.998 233.85 857.305C232.507 860.508 230.492 863.35 227.805 865.83C225.222 868.207 221.915 869.912 217.885 870.945C222.122 871.772 225.893 873.425 229.2 875.905C232.61 878.282 235.297 881.433 237.26 885.36C239.223 889.183 240.205 893.678 240.205 898.845C240.205 904.735 238.81 910.212 236.02 915.275C233.333 920.235 229.303 924.265 223.93 927.365C218.557 930.362 211.892 931.86 203.935 931.86ZM259.719 930.775C257.343 930.775 255.276 929.948 253.519 928.295C251.866 926.538 251.039 924.472 251.039 922.095C251.039 919.718 251.866 917.703 253.519 916.05C255.276 914.397 257.343 913.57 259.719 913.57C262.096 913.57 264.111 914.397 265.764 916.05C267.418 917.703 268.244 919.718 268.244 922.095C268.244 924.472 267.418 926.538 265.764 928.295C264.111 929.948 262.096 930.775 259.719 930.775ZM315.157 931.86C308.337 931.86 302.499 930.517 297.642 927.83C292.786 925.143 288.911 921.527 286.017 916.98C283.227 912.433 281.522 907.473 280.902 902.1H292.992C294.026 907.99 296.506 912.537 300.432 915.74C304.359 918.943 309.319 920.545 315.312 920.545C320.789 920.545 325.646 918.892 329.882 915.585C334.222 912.175 337.684 907.06 340.267 900.24C342.954 893.317 344.452 884.585 344.762 874.045C344.762 873.838 344.762 873.632 344.762 873.425C344.762 873.218 344.762 873.063 344.762 872.96C343.109 876.163 340.784 879.16 337.787 881.95C334.791 884.637 331.226 886.807 327.092 888.46C323.062 890.113 318.464 890.94 313.297 890.94C307.201 890.94 301.414 889.493 295.937 886.6C290.461 883.707 286.017 879.677 282.607 874.51C279.197 869.24 277.492 863.092 277.492 856.065C277.492 849.968 278.991 844.13 281.987 838.55C284.984 832.97 289.272 828.423 294.852 824.91C300.536 821.397 307.252 819.64 315.002 819.64C322.856 819.64 329.469 821.138 334.842 824.135C340.216 827.028 344.504 830.955 347.707 835.915C351.014 840.875 353.391 846.455 354.837 852.655C356.387 858.752 357.162 865.003 357.162 871.41C357.162 883.293 355.509 893.782 352.202 902.875C348.896 911.968 344.091 919.098 337.787 924.265C331.587 929.328 324.044 931.86 315.157 931.86ZM315.932 879.625C320.789 879.625 325.129 878.54 328.952 876.37C332.776 874.097 335.824 871.1 338.097 867.38C340.371 863.66 341.507 859.63 341.507 855.29C341.507 850.64 340.371 846.507 338.097 842.89C335.824 839.17 332.776 836.277 328.952 834.21C325.129 832.143 320.789 831.11 315.932 831.11C311.076 831.11 306.736 832.195 302.912 834.365C299.089 836.432 296.092 839.273 293.922 842.89C291.752 846.507 290.667 850.692 290.667 855.445C290.667 860.302 291.752 864.538 293.922 868.155C296.092 871.772 299.089 874.613 302.912 876.68C306.736 878.643 311.076 879.625 315.932 879.625ZM404.936 931.86C397.496 931.86 391.038 930.517 385.561 927.83C380.084 925.04 375.744 921.32 372.541 916.67C369.338 911.917 367.323 906.595 366.496 900.705H379.206C380.446 906.698 383.339 911.555 387.886 915.275C392.433 918.892 398.168 920.7 405.091 920.7C410.258 920.7 414.701 919.512 418.421 917.135C422.141 914.655 424.983 911.348 426.946 907.215C429.013 903.082 430.046 898.483 430.046 893.42C430.046 888.047 429.013 883.345 426.946 879.315C424.879 875.285 421.986 872.133 418.266 869.86C414.649 867.587 410.413 866.45 405.556 866.45C399.563 866.45 394.448 867.793 390.211 870.48C385.974 873.167 382.874 876.68 380.911 881.02H368.511L377.811 821.5H434.696V832.815H387.886L381.531 865.83C384.114 862.833 387.576 860.353 391.916 858.39C396.256 856.427 401.268 855.445 406.951 855.445C412.324 855.445 417.181 856.427 421.521 858.39C425.861 860.25 429.581 862.885 432.681 866.295C435.884 869.705 438.313 873.735 439.966 878.385C441.723 882.932 442.601 887.892 442.601 893.265C442.601 898.535 441.774 903.495 440.121 908.145C438.468 912.795 435.988 916.928 432.681 920.545C429.478 924.058 425.551 926.848 420.901 928.915C416.251 930.878 410.929 931.86 404.936 931.86ZM460.584 930.775C458.207 930.775 456.14 929.948 454.384 928.295C452.73 926.538 451.904 924.472 451.904 922.095C451.904 919.718 452.73 917.703 454.384 916.05C456.14 914.397 458.207 913.57 460.584 913.57C462.96 913.57 464.975 914.397 466.629 916.05C468.282 917.703 469.109 919.718 469.109 922.095C469.109 924.472 468.282 926.538 466.629 928.295C464.975 929.948 462.96 930.775 460.584 930.775ZM460.584 868.93C458.207 868.93 456.14 868.103 454.384 866.45C452.73 864.693 451.904 862.627 451.904 860.25C451.904 857.873 452.73 855.858 454.384 854.205C456.14 852.552 458.207 851.725 460.584 851.725C462.96 851.725 464.975 852.552 466.629 854.205C468.282 855.858 469.109 857.873 469.109 860.25C469.109 862.627 468.282 864.693 466.629 866.45C464.975 868.103 462.96 868.93 460.584 868.93ZM494.321 930V836.07L476.806 839.945V830.955L498.661 821.5H507.496V930H494.321Z" fill="black"/>
<path d="M1028.94 931.86C1021.81 931.86 1015.4 930.568 1009.72 927.985C1004.14 925.298 999.692 921.63 996.385 916.98C993.078 912.227 991.425 906.75 991.425 900.55C991.425 896.107 992.303 891.973 994.06 888.15C995.817 884.327 998.297 881.02 1001.5 878.23C1004.7 875.337 1008.42 873.322 1012.66 872.185C1006.77 870.118 1002.22 866.915 999.02 862.575C995.817 858.235 994.215 853.533 994.215 848.47C994.215 843.097 995.61 838.24 998.4 833.9C1001.19 829.56 1005.17 826.098 1010.34 823.515C1015.5 820.932 1021.7 819.64 1028.94 819.64C1036.17 819.64 1042.37 820.932 1047.54 823.515C1052.7 826.098 1056.68 829.56 1059.47 833.9C1062.26 838.24 1063.66 843.097 1063.66 848.47C1063.66 853.533 1062.05 858.235 1058.85 862.575C1055.65 866.915 1051.1 870.118 1045.21 872.185C1049.55 873.322 1053.27 875.337 1056.37 878.23C1059.57 881.02 1062.05 884.327 1063.81 888.15C1065.57 891.973 1066.45 896.107 1066.45 900.55C1066.45 906.75 1064.79 912.227 1061.49 916.98C1058.28 921.63 1053.84 925.298 1048.16 927.985C1042.47 930.568 1036.07 931.86 1028.94 931.86ZM1028.94 920.39C1037.2 920.39 1043.35 918.53 1047.38 914.81C1051.41 910.987 1053.43 905.975 1053.43 899.775C1053.43 892.748 1051.2 887.427 1046.76 883.81C1042.32 880.193 1036.38 878.385 1028.94 878.385C1021.5 878.385 1015.55 880.193 1011.11 883.81C1006.67 887.427 1004.45 892.748 1004.45 899.775C1004.45 905.975 1006.46 910.987 1010.49 914.81C1014.62 918.53 1020.77 920.39 1028.94 920.39ZM1028.94 867.535C1035.55 867.535 1040.77 865.83 1044.59 862.42C1048.52 859.01 1050.48 854.618 1050.48 849.245C1050.48 843.148 1048.57 838.55 1044.75 835.45C1040.92 832.35 1035.65 830.8 1028.94 830.8C1022.32 830.8 1017.1 832.35 1013.28 835.45C1009.46 838.55 1007.55 843.148 1007.55 849.245C1007.55 854.618 1009.46 859.01 1013.28 862.42C1017.1 865.83 1022.32 867.535 1028.94 867.535ZM1085.93 930.775C1083.55 930.775 1081.49 929.948 1079.73 928.295C1078.08 926.538 1077.25 924.472 1077.25 922.095C1077.25 919.718 1078.08 917.703 1079.73 916.05C1081.49 914.397 1083.55 913.57 1085.93 913.57C1088.31 913.57 1090.32 914.397 1091.98 916.05C1093.63 917.703 1094.46 919.718 1094.46 922.095C1094.46 924.472 1093.63 926.538 1091.98 928.295C1090.32 929.948 1088.31 930.775 1085.93 930.775ZM1147.41 931.86C1139.56 931.86 1132.95 930.413 1127.57 927.52C1122.2 924.523 1117.86 920.545 1114.55 915.585C1111.35 910.625 1108.97 905.097 1107.42 899C1105.98 892.8 1105.25 886.497 1105.25 880.09C1105.25 868.103 1106.91 857.615 1110.21 848.625C1113.52 839.532 1118.32 832.453 1124.63 827.39C1130.93 822.223 1138.47 819.64 1147.26 819.64C1154.08 819.64 1159.92 820.983 1164.77 823.67C1169.73 826.357 1173.61 829.973 1176.4 834.52C1179.29 838.963 1181.05 843.923 1181.67 849.4H1169.58C1168.54 843.51 1166.06 838.963 1162.14 835.76C1158.21 832.557 1153.2 830.955 1147.1 830.955C1141.73 830.955 1136.87 832.66 1132.53 836.07C1128.19 839.377 1124.68 844.492 1121.99 851.415C1119.41 858.235 1117.96 867.018 1117.65 877.765C1117.65 877.868 1117.65 877.972 1117.65 878.075C1117.65 878.178 1117.65 878.333 1117.65 878.54C1119.31 875.337 1121.63 872.392 1124.63 869.705C1127.62 866.915 1131.19 864.693 1135.32 863.04C1139.46 861.387 1144.05 860.56 1149.12 860.56C1155.32 860.56 1161.1 862.007 1166.48 864.9C1171.95 867.793 1176.4 871.875 1179.81 877.145C1183.22 882.312 1184.92 888.408 1184.92 895.435C1184.92 901.532 1183.42 907.37 1180.43 912.95C1177.43 918.53 1173.09 923.077 1167.41 926.59C1161.83 930.103 1155.16 931.86 1147.41 931.86ZM1146.48 920.39C1151.34 920.39 1155.68 919.357 1159.5 917.29C1163.33 915.12 1166.32 912.227 1168.49 908.61C1170.66 904.89 1171.75 900.705 1171.75 896.055C1171.75 891.198 1170.66 886.962 1168.49 883.345C1166.32 879.728 1163.33 876.938 1159.5 874.975C1155.68 872.908 1151.34 871.875 1146.48 871.875C1141.73 871.875 1137.39 873.012 1133.46 875.285C1129.64 877.455 1126.59 880.4 1124.32 884.12C1122.15 887.737 1121.06 891.767 1121.06 896.21C1121.06 900.86 1122.15 904.993 1124.32 908.61C1126.59 912.227 1129.64 915.12 1133.46 917.29C1137.39 919.357 1141.73 920.39 1146.48 920.39ZM1230.37 931.86C1223.55 931.86 1217.71 930.517 1212.86 927.83C1208 925.143 1204.13 921.527 1201.23 916.98C1198.44 912.433 1196.74 907.473 1196.12 902.1H1208.21C1209.24 907.99 1211.72 912.537 1215.65 915.74C1219.57 918.943 1224.53 920.545 1230.53 920.545C1236 920.545 1240.86 918.892 1245.1 915.585C1249.44 912.175 1252.9 907.06 1255.48 900.24C1258.17 893.317 1259.67 884.585 1259.98 874.045C1259.98 873.838 1259.98 873.632 1259.98 873.425C1259.98 873.218 1259.98 873.063 1259.98 872.96C1258.32 876.163 1256 879.16 1253 881.95C1250.01 884.637 1246.44 886.807 1242.31 888.46C1238.28 890.113 1233.68 890.94 1228.51 890.94C1222.42 890.94 1216.63 889.493 1211.15 886.6C1205.68 883.707 1201.23 879.677 1197.82 874.51C1194.41 869.24 1192.71 863.092 1192.71 856.065C1192.71 849.968 1194.21 844.13 1197.2 838.55C1200.2 832.97 1204.49 828.423 1210.07 824.91C1215.75 821.397 1222.47 819.64 1230.22 819.64C1238.07 819.64 1244.68 821.138 1250.06 824.135C1255.43 827.028 1259.72 830.955 1262.92 835.915C1266.23 840.875 1268.61 846.455 1270.05 852.655C1271.6 858.752 1272.38 865.003 1272.38 871.41C1272.38 883.293 1270.72 893.782 1267.42 902.875C1264.11 911.968 1259.31 919.098 1253 924.265C1246.8 929.328 1239.26 931.86 1230.37 931.86ZM1231.15 879.625C1236 879.625 1240.34 878.54 1244.17 876.37C1247.99 874.097 1251.04 871.1 1253.31 867.38C1255.59 863.66 1256.72 859.63 1256.72 855.29C1256.72 850.64 1255.59 846.507 1253.31 842.89C1251.04 839.17 1247.99 836.277 1244.17 834.21C1240.34 832.143 1236 831.11 1231.15 831.11C1226.29 831.11 1221.95 832.195 1218.13 834.365C1214.3 836.432 1211.31 839.273 1209.14 842.89C1206.97 846.507 1205.88 850.692 1205.88 855.445C1205.88 860.302 1206.97 864.538 1209.14 868.155C1211.31 871.772 1214.3 874.613 1218.13 876.68C1221.95 878.643 1226.29 879.625 1231.15 879.625ZM1291.94 930.775C1289.56 930.775 1287.5 929.948 1285.74 928.295C1284.09 926.538 1283.26 924.472 1283.26 922.095C1283.26 919.718 1284.09 917.703 1285.74 916.05C1287.5 914.397 1289.56 913.57 1291.94 913.57C1294.32 913.57 1296.33 914.397 1297.99 916.05C1299.64 917.703 1300.47 919.718 1300.47 922.095C1300.47 924.472 1299.64 926.538 1297.99 928.295C1296.33 929.948 1294.32 930.775 1291.94 930.775ZM1291.94 868.93C1289.56 868.93 1287.5 868.103 1285.74 866.45C1284.09 864.693 1283.26 862.627 1283.26 860.25C1283.26 857.873 1284.09 855.858 1285.74 854.205C1287.5 852.552 1289.56 851.725 1291.94 851.725C1294.32 851.725 1296.33 852.552 1297.99 854.205C1299.64 855.858 1300.47 857.873 1300.47 860.25C1300.47 862.627 1299.64 864.693 1297.99 866.45C1296.33 868.103 1294.32 868.93 1291.94 868.93ZM1325.68 930V836.07L1308.16 839.945V830.955L1330.02 821.5H1338.85V930H1325.68Z" fill="black"/>
<path d="M1874.94 931.86C1868.01 931.86 1861.71 930.62 1856.03 928.14C1850.45 925.557 1846 921.733 1842.7 916.67C1839.39 911.607 1837.63 905.303 1837.43 897.76H1850.6C1850.7 901.893 1851.69 905.717 1853.55 909.23C1855.51 912.64 1858.3 915.378 1861.92 917.445C1865.53 919.512 1869.87 920.545 1874.94 920.545C1880 920.545 1884.24 919.563 1887.65 917.6C1891.06 915.637 1893.64 913.053 1895.4 909.85C1897.15 906.543 1898.03 902.875 1898.03 898.845C1898.03 893.782 1896.79 889.648 1894.31 886.445C1891.93 883.242 1888.68 880.865 1884.55 879.315C1880.52 877.765 1876.07 876.99 1871.22 876.99H1863.16V865.985H1871.22C1878.24 865.985 1883.72 864.383 1887.65 861.18C1891.68 857.873 1893.69 853.378 1893.69 847.695C1893.69 842.838 1892.14 838.86 1889.04 835.76C1885.94 832.557 1881.24 830.955 1874.94 830.955C1868.94 830.955 1864.14 832.712 1860.52 836.225C1857.01 839.738 1854.99 844.233 1854.48 849.71H1841.3C1841.61 843.82 1843.16 838.602 1845.95 834.055C1848.84 829.508 1852.77 825.995 1857.73 823.515C1862.69 820.932 1868.43 819.64 1874.94 819.64C1881.96 819.64 1887.8 820.88 1892.45 823.36C1897.2 825.84 1900.77 829.147 1903.15 833.28C1905.63 837.413 1906.87 841.96 1906.87 846.92C1906.87 850.537 1906.19 853.998 1904.85 857.305C1903.51 860.508 1901.49 863.35 1898.81 865.83C1896.22 868.207 1892.92 869.912 1888.89 870.945C1893.12 871.772 1896.89 873.425 1900.2 875.905C1903.61 878.282 1906.3 881.433 1908.26 885.36C1910.22 889.183 1911.21 893.678 1911.21 898.845C1911.21 904.735 1909.81 910.212 1907.02 915.275C1904.33 920.235 1900.3 924.265 1894.93 927.365C1889.56 930.362 1882.89 931.86 1874.94 931.86ZM1930.72 930.775C1928.34 930.775 1926.28 929.948 1924.52 928.295C1922.87 926.538 1922.04 924.472 1922.04 922.095C1922.04 919.718 1922.87 917.703 1924.52 916.05C1926.28 914.397 1928.34 913.57 1930.72 913.57C1933.1 913.57 1935.11 914.397 1936.76 916.05C1938.42 917.703 1939.24 919.718 1939.24 922.095C1939.24 924.472 1938.42 926.538 1936.76 928.295C1935.11 929.948 1933.1 930.775 1930.72 930.775ZM1964.92 930L2008.01 832.66H1948.49V821.5H2021.34V831.265L1978.72 930H1964.92ZM2068.64 931.86C2060.79 931.86 2054.18 930.413 2048.8 927.52C2043.43 924.523 2039.09 920.545 2035.78 915.585C2032.58 910.625 2030.2 905.097 2028.65 899C2027.21 892.8 2026.48 886.497 2026.48 880.09C2026.48 868.103 2028.14 857.615 2031.44 848.625C2034.75 839.532 2039.55 832.453 2045.86 827.39C2052.16 822.223 2059.7 819.64 2068.49 819.64C2075.31 819.64 2081.15 820.983 2086 823.67C2090.96 826.357 2094.84 829.973 2097.63 834.52C2100.52 838.963 2102.28 843.923 2102.9 849.4H2090.81C2089.77 843.51 2087.29 838.963 2083.37 835.76C2079.44 832.557 2074.43 830.955 2068.33 830.955C2062.96 830.955 2058.1 832.66 2053.76 836.07C2049.42 839.377 2045.91 844.492 2043.22 851.415C2040.64 858.235 2039.19 867.018 2038.88 877.765C2038.88 877.868 2038.88 877.972 2038.88 878.075C2038.88 878.178 2038.88 878.333 2038.88 878.54C2040.54 875.337 2042.86 872.392 2045.86 869.705C2048.85 866.915 2052.42 864.693 2056.55 863.04C2060.69 861.387 2065.28 860.56 2070.35 860.56C2076.55 860.56 2082.33 862.007 2087.71 864.9C2093.18 867.793 2097.63 871.875 2101.04 877.145C2104.45 882.312 2106.15 888.408 2106.15 895.435C2106.15 901.532 2104.65 907.37 2101.66 912.95C2098.66 918.53 2094.32 923.077 2088.64 926.59C2083.06 930.103 2076.39 931.86 2068.64 931.86ZM2067.71 920.39C2072.57 920.39 2076.91 919.357 2080.73 917.29C2084.56 915.12 2087.55 912.227 2089.72 908.61C2091.89 904.89 2092.98 900.705 2092.98 896.055C2092.98 891.198 2091.89 886.962 2089.72 883.345C2087.55 879.728 2084.56 876.938 2080.73 874.975C2076.91 872.908 2072.57 871.875 2067.71 871.875C2062.96 871.875 2058.62 873.012 2054.69 875.285C2050.87 877.455 2047.82 880.4 2045.55 884.12C2043.38 887.737 2042.29 891.767 2042.29 896.21C2042.29 900.86 2043.38 904.993 2045.55 908.61C2047.82 912.227 2050.87 915.12 2054.69 917.29C2058.62 919.357 2062.96 920.39 2067.71 920.39ZM2124.17 930.775C2121.79 930.775 2119.72 929.948 2117.97 928.295C2116.31 926.538 2115.49 924.472 2115.49 922.095C2115.49 919.718 2116.31 917.703 2117.97 916.05C2119.72 914.397 2121.79 913.57 2124.17 913.57C2126.54 913.57 2128.56 914.397 2130.21 916.05C2131.86 917.703 2132.69 919.718 2132.69 922.095C2132.69 924.472 2131.86 926.538 2130.21 928.295C2128.56 929.948 2126.54 930.775 2124.17 930.775ZM2124.17 868.93C2121.79 868.93 2119.72 868.103 2117.97 866.45C2116.31 864.693 2115.49 862.627 2115.49 860.25C2115.49 857.873 2116.31 855.858 2117.97 854.205C2119.72 852.552 2121.79 851.725 2124.17 851.725C2126.54 851.725 2128.56 852.552 2130.21 854.205C2131.86 855.858 2132.69 857.873 2132.69 860.25C2132.69 862.627 2131.86 864.693 2130.21 866.45C2128.56 868.103 2126.54 868.93 2124.17 868.93ZM2157.9 930V836.07L2140.39 839.945V830.955L2162.24 821.5H2171.08V930H2157.9Z" fill="black"/>
<path d="M220.54 1983.86C213.72 1983.86 207.882 1982.52 203.025 1979.83C198.168 1977.14 194.293 1973.53 191.4 1968.98C188.61 1964.43 186.905 1959.47 186.285 1954.1H198.375C199.408 1959.99 201.888 1964.54 205.815 1967.74C209.742 1970.94 214.702 1972.54 220.695 1972.54C226.172 1972.54 231.028 1970.89 235.265 1967.58C239.605 1964.17 243.067 1959.06 245.65 1952.24C248.337 1945.32 249.835 1936.58 250.145 1926.04C250.145 1925.84 250.145 1925.63 250.145 1925.42C250.145 1925.22 250.145 1925.06 250.145 1924.96C248.492 1928.16 246.167 1931.16 243.17 1933.95C240.173 1936.64 236.608 1938.81 232.475 1940.46C228.445 1942.11 223.847 1942.94 218.68 1942.94C212.583 1942.94 206.797 1941.49 201.32 1938.6C195.843 1935.71 191.4 1931.68 187.99 1926.51C184.58 1921.24 182.875 1915.09 182.875 1908.06C182.875 1901.97 184.373 1896.13 187.37 1890.55C190.367 1884.97 194.655 1880.42 200.235 1876.91C205.918 1873.4 212.635 1871.64 220.385 1871.64C228.238 1871.64 234.852 1873.14 240.225 1876.13C245.598 1879.03 249.887 1882.95 253.09 1887.91C256.397 1892.87 258.773 1898.45 260.22 1904.65C261.77 1910.75 262.545 1917 262.545 1923.41C262.545 1935.29 260.892 1945.78 257.585 1954.87C254.278 1963.97 249.473 1971.1 243.17 1976.26C236.97 1981.33 229.427 1983.86 220.54 1983.86ZM221.315 1931.62C226.172 1931.62 230.512 1930.54 234.335 1928.37C238.158 1926.1 241.207 1923.1 243.48 1919.38C245.753 1915.66 246.89 1911.63 246.89 1907.29C246.89 1902.64 245.753 1898.51 243.48 1894.89C241.207 1891.17 238.158 1888.28 234.335 1886.21C230.512 1884.14 226.172 1883.11 221.315 1883.11C216.458 1883.11 212.118 1884.19 208.295 1886.36C204.472 1888.43 201.475 1891.27 199.305 1894.89C197.135 1898.51 196.05 1902.69 196.05 1907.44C196.05 1912.3 197.135 1916.54 199.305 1920.15C201.475 1923.77 204.472 1926.61 208.295 1928.68C212.118 1930.64 216.458 1931.62 221.315 1931.62ZM282.109 1982.78C279.732 1982.78 277.666 1981.95 275.909 1980.29C274.256 1978.54 273.429 1976.47 273.429 1974.09C273.429 1971.72 274.256 1969.7 275.909 1968.05C277.666 1966.4 279.732 1965.57 282.109 1965.57C284.486 1965.57 286.501 1966.4 288.154 1968.05C289.807 1969.7 290.634 1971.72 290.634 1974.09C290.634 1976.47 289.807 1978.54 288.154 1980.29C286.501 1981.95 284.486 1982.78 282.109 1982.78ZM315.847 1982V1888.07L298.332 1891.94V1882.95L320.187 1873.5H329.022V1982H315.847ZM355.808 1982V1888.07L338.293 1891.94V1882.95L360.148 1873.5H368.983V1982H355.808ZM390.034 1982.78C387.657 1982.78 385.59 1981.95 383.834 1980.29C382.18 1978.54 381.354 1976.47 381.354 1974.09C381.354 1971.72 382.18 1969.7 383.834 1968.05C385.59 1966.4 387.657 1965.57 390.034 1965.57C392.41 1965.57 394.425 1966.4 396.079 1968.05C397.732 1969.7 398.559 1971.72 398.559 1974.09C398.559 1976.47 397.732 1978.54 396.079 1980.29C394.425 1981.95 392.41 1982.78 390.034 1982.78ZM390.034 1920.93C387.657 1920.93 385.59 1920.1 383.834 1918.45C382.18 1916.69 381.354 1914.63 381.354 1912.25C381.354 1909.87 382.18 1907.86 383.834 1906.2C385.59 1904.55 387.657 1903.73 390.034 1903.73C392.41 1903.73 394.425 1904.55 396.079 1906.2C397.732 1907.86 398.559 1909.87 398.559 1912.25C398.559 1914.63 397.732 1916.69 396.079 1918.45C394.425 1920.1 392.41 1920.93 390.034 1920.93ZM423.772 1982V1888.07L406.257 1891.94V1882.95L428.112 1873.5H436.947V1982H423.772Z" fill="black"/>
<path d="M1054.59 1983.86C1046.73 1983.86 1040.12 1982.41 1034.75 1979.52C1029.37 1976.52 1025.03 1972.54 1021.73 1967.58C1018.52 1962.62 1016.15 1957.1 1014.6 1951C1013.15 1944.8 1012.43 1938.5 1012.43 1932.09C1012.43 1920.1 1014.08 1909.61 1017.39 1900.62C1020.69 1891.53 1025.5 1884.45 1031.8 1879.39C1038.1 1874.22 1045.65 1871.64 1054.43 1871.64C1061.25 1871.64 1067.09 1872.98 1071.95 1875.67C1076.91 1878.36 1080.78 1881.97 1083.57 1886.52C1086.46 1890.96 1088.22 1895.92 1088.84 1901.4H1076.75C1075.72 1895.51 1073.24 1890.96 1069.31 1887.76C1065.38 1884.56 1060.37 1882.95 1054.28 1882.95C1048.9 1882.95 1044.05 1884.66 1039.71 1888.07C1035.37 1891.38 1031.85 1896.49 1029.17 1903.41C1026.58 1910.23 1025.14 1919.02 1024.83 1929.76C1024.83 1929.87 1024.83 1929.97 1024.83 1930.07C1024.83 1930.18 1024.83 1930.33 1024.83 1930.54C1026.48 1927.34 1028.8 1924.39 1031.8 1921.7C1034.8 1918.91 1038.36 1916.69 1042.5 1915.04C1046.63 1913.39 1051.23 1912.56 1056.29 1912.56C1062.49 1912.56 1068.28 1914.01 1073.65 1916.9C1079.13 1919.79 1083.57 1923.87 1086.98 1929.14C1090.39 1934.31 1092.1 1940.41 1092.1 1947.43C1092.1 1953.53 1090.6 1959.37 1087.6 1964.95C1084.6 1970.53 1080.26 1975.08 1074.58 1978.59C1069 1982.1 1062.34 1983.86 1054.59 1983.86ZM1053.66 1972.39C1058.51 1972.39 1062.85 1971.36 1066.68 1969.29C1070.5 1967.12 1073.5 1964.23 1075.67 1960.61C1077.84 1956.89 1078.92 1952.7 1078.92 1948.05C1078.92 1943.2 1077.84 1938.96 1075.67 1935.34C1073.5 1931.73 1070.5 1928.94 1066.68 1926.97C1062.85 1924.91 1058.51 1923.87 1053.66 1923.87C1048.9 1923.87 1044.56 1925.01 1040.64 1927.28C1036.81 1929.45 1033.76 1932.4 1031.49 1936.12C1029.32 1939.74 1028.24 1943.77 1028.24 1948.21C1028.24 1952.86 1029.32 1956.99 1031.49 1960.61C1033.76 1964.23 1036.81 1967.12 1040.64 1969.29C1044.56 1971.36 1048.9 1972.39 1053.66 1972.39ZM1110.11 1982.78C1107.73 1982.78 1105.67 1981.95 1103.91 1980.29C1102.26 1978.54 1101.43 1976.47 1101.43 1974.09C1101.43 1971.72 1102.26 1969.7 1103.91 1968.05C1105.67 1966.4 1107.73 1965.57 1110.11 1965.57C1112.49 1965.57 1114.5 1966.4 1116.15 1968.05C1117.81 1969.7 1118.63 1971.72 1118.63 1974.09C1118.63 1976.47 1117.81 1978.54 1116.15 1980.29C1114.5 1981.95 1112.49 1982.78 1110.11 1982.78ZM1171.59 1983.86C1163.74 1983.86 1157.13 1982.41 1151.75 1979.52C1146.38 1976.52 1142.04 1972.54 1138.73 1967.58C1135.53 1962.62 1133.15 1957.1 1131.6 1951C1130.16 1944.8 1129.43 1938.5 1129.43 1932.09C1129.43 1920.1 1131.09 1909.61 1134.39 1900.62C1137.7 1891.53 1142.5 1884.45 1148.81 1879.39C1155.11 1874.22 1162.65 1871.64 1171.44 1871.64C1178.26 1871.64 1184.1 1872.98 1188.95 1875.67C1193.91 1878.36 1197.79 1881.97 1200.58 1886.52C1203.47 1890.96 1205.23 1895.92 1205.85 1901.4H1193.76C1192.72 1895.51 1190.24 1890.96 1186.32 1887.76C1182.39 1884.56 1177.38 1882.95 1171.28 1882.95C1165.91 1882.95 1161.05 1884.66 1156.71 1888.07C1152.37 1891.38 1148.86 1896.49 1146.17 1903.41C1143.59 1910.23 1142.14 1919.02 1141.83 1929.76C1141.83 1929.87 1141.83 1929.97 1141.83 1930.07C1141.83 1930.18 1141.83 1930.33 1141.83 1930.54C1143.49 1927.34 1145.81 1924.39 1148.81 1921.7C1151.8 1918.91 1155.37 1916.69 1159.5 1915.04C1163.64 1913.39 1168.23 1912.56 1173.3 1912.56C1179.5 1912.56 1185.28 1914.01 1190.66 1916.9C1196.13 1919.79 1200.58 1923.87 1203.99 1929.14C1207.4 1934.31 1209.1 1940.41 1209.1 1947.43C1209.1 1953.53 1207.6 1959.37 1204.61 1964.95C1201.61 1970.53 1197.27 1975.08 1191.59 1978.59C1186.01 1982.1 1179.34 1983.86 1171.59 1983.86ZM1170.66 1972.39C1175.52 1972.39 1179.86 1971.36 1183.68 1969.29C1187.51 1967.12 1190.5 1964.23 1192.67 1960.61C1194.84 1956.89 1195.93 1952.7 1195.93 1948.05C1195.93 1943.2 1194.84 1938.96 1192.67 1935.34C1190.5 1931.73 1187.51 1928.94 1183.68 1926.97C1179.86 1924.91 1175.52 1923.87 1170.66 1923.87C1165.91 1923.87 1161.57 1925.01 1157.64 1927.28C1153.82 1929.45 1150.77 1932.4 1148.5 1936.12C1146.33 1939.74 1145.24 1943.77 1145.24 1948.21C1145.24 1952.86 1146.33 1956.99 1148.5 1960.61C1150.77 1964.23 1153.82 1967.12 1157.64 1969.29C1161.57 1971.36 1165.91 1972.39 1170.66 1972.39ZM1216.89 1982V1972.85C1224.22 1967.07 1231.15 1961.23 1237.66 1955.34C1244.27 1949.45 1250.11 1943.61 1255.17 1937.82C1260.34 1931.93 1264.37 1926.2 1267.26 1920.62C1270.26 1915.04 1271.76 1909.67 1271.76 1904.5C1271.76 1900.68 1271.08 1897.16 1269.74 1893.96C1268.5 1890.65 1266.43 1887.97 1263.54 1885.9C1260.65 1883.83 1256.72 1882.8 1251.76 1882.8C1247.01 1882.8 1243.03 1883.88 1239.83 1886.05C1236.62 1888.12 1234.19 1890.91 1232.54 1894.43C1230.99 1897.83 1230.22 1901.61 1230.22 1905.74H1217.66C1217.76 1898.61 1219.26 1892.51 1222.16 1887.45C1225.15 1882.28 1229.23 1878.36 1234.4 1875.67C1239.57 1872.98 1245.41 1871.64 1251.92 1871.64C1258.32 1871.64 1264.01 1872.88 1268.97 1875.36C1273.93 1877.74 1277.8 1881.3 1280.59 1886.05C1283.38 1890.81 1284.78 1896.8 1284.78 1904.03C1284.78 1909.1 1283.74 1914.16 1281.68 1919.22C1279.61 1924.29 1276.82 1929.25 1273.31 1934.1C1269.79 1938.86 1265.92 1943.46 1261.68 1947.9C1257.44 1952.34 1253.1 1956.53 1248.66 1960.45C1244.22 1964.38 1240.03 1967.95 1236.11 1971.15H1288.5V1982H1216.89ZM1306.43 1982.78C1304.06 1982.78 1301.99 1981.95 1300.23 1980.29C1298.58 1978.54 1297.75 1976.47 1297.75 1974.09C1297.75 1971.72 1298.58 1969.7 1300.23 1968.05C1301.99 1966.4 1304.06 1965.57 1306.43 1965.57C1308.81 1965.57 1310.82 1966.4 1312.48 1968.05C1314.13 1969.7 1314.96 1971.72 1314.96 1974.09C1314.96 1976.47 1314.13 1978.54 1312.48 1980.29C1310.82 1981.95 1308.81 1982.78 1306.43 1982.78ZM1306.43 1920.93C1304.06 1920.93 1301.99 1920.1 1300.23 1918.45C1298.58 1916.69 1297.75 1914.63 1297.75 1912.25C1297.75 1909.87 1298.58 1907.86 1300.23 1906.2C1301.99 1904.55 1304.06 1903.73 1306.43 1903.73C1308.81 1903.73 1310.82 1904.55 1312.48 1906.2C1314.13 1907.86 1314.96 1909.87 1314.96 1912.25C1314.96 1914.63 1314.13 1916.69 1312.48 1918.45C1310.82 1920.1 1308.81 1920.93 1306.43 1920.93ZM1340.17 1982V1888.07L1322.66 1891.94V1882.95L1344.51 1873.5H1353.35V1982H1340.17Z" fill="black"/>
<path d="M1854.94 1983.86C1848.01 1983.86 1841.71 1982.62 1836.03 1980.14C1830.45 1977.56 1826 1973.73 1822.7 1968.67C1819.39 1963.61 1817.63 1957.3 1817.43 1949.76H1830.6C1830.7 1953.89 1831.69 1957.72 1833.55 1961.23C1835.51 1964.64 1838.3 1967.38 1841.92 1969.44C1845.53 1971.51 1849.87 1972.54 1854.94 1972.54C1860 1972.54 1864.24 1971.56 1867.65 1969.6C1871.06 1967.64 1873.64 1965.05 1875.4 1961.85C1877.15 1958.54 1878.03 1954.87 1878.03 1950.84C1878.03 1945.78 1876.79 1941.65 1874.31 1938.44C1871.93 1935.24 1868.68 1932.86 1864.55 1931.31C1860.52 1929.76 1856.07 1928.99 1851.22 1928.99H1843.16V1917.98H1851.22C1858.24 1917.98 1863.72 1916.38 1867.65 1913.18C1871.68 1909.87 1873.69 1905.38 1873.69 1899.69C1873.69 1894.84 1872.14 1890.86 1869.04 1887.76C1865.94 1884.56 1861.24 1882.95 1854.94 1882.95C1848.94 1882.95 1844.14 1884.71 1840.52 1888.22C1837.01 1891.74 1834.99 1896.23 1834.48 1901.71H1821.3C1821.61 1895.82 1823.16 1890.6 1825.95 1886.05C1828.84 1881.51 1832.77 1877.99 1837.73 1875.51C1842.69 1872.93 1848.43 1871.64 1854.94 1871.64C1861.96 1871.64 1867.8 1872.88 1872.45 1875.36C1877.2 1877.84 1880.77 1881.15 1883.15 1885.28C1885.63 1889.41 1886.87 1893.96 1886.87 1898.92C1886.87 1902.54 1886.19 1906 1884.85 1909.3C1883.51 1912.51 1881.49 1915.35 1878.81 1917.83C1876.22 1920.21 1872.92 1921.91 1868.89 1922.94C1873.12 1923.77 1876.89 1925.42 1880.2 1927.9C1883.61 1930.28 1886.3 1933.43 1888.26 1937.36C1890.22 1941.18 1891.21 1945.68 1891.21 1950.84C1891.21 1956.73 1889.81 1962.21 1887.02 1967.27C1884.33 1972.23 1880.3 1976.26 1874.93 1979.36C1869.56 1982.36 1862.89 1983.86 1854.94 1983.86ZM1910.72 1982.78C1908.34 1982.78 1906.28 1981.95 1904.52 1980.29C1902.87 1978.54 1902.04 1976.47 1902.04 1974.09C1902.04 1971.72 1902.87 1969.7 1904.52 1968.05C1906.28 1966.4 1908.34 1965.57 1910.72 1965.57C1913.1 1965.57 1915.11 1966.4 1916.76 1968.05C1918.42 1969.7 1919.24 1971.72 1919.24 1974.09C1919.24 1976.47 1918.42 1978.54 1916.76 1980.29C1915.11 1981.95 1913.1 1982.78 1910.72 1982.78ZM1966.93 1983.86C1959.49 1983.86 1953.03 1982.52 1947.56 1979.83C1942.08 1977.04 1937.74 1973.32 1934.54 1968.67C1931.33 1963.92 1929.32 1958.59 1928.49 1952.7H1941.2C1942.44 1958.7 1945.34 1963.55 1949.88 1967.27C1954.43 1970.89 1960.16 1972.7 1967.09 1972.7C1972.25 1972.7 1976.7 1971.51 1980.42 1969.13C1984.14 1966.65 1986.98 1963.35 1988.94 1959.22C1991.01 1955.08 1992.04 1950.48 1992.04 1945.42C1992.04 1940.05 1991.01 1935.34 1988.94 1931.31C1986.88 1927.28 1983.98 1924.13 1980.26 1921.86C1976.65 1919.59 1972.41 1918.45 1967.55 1918.45C1961.56 1918.45 1956.44 1919.79 1952.21 1922.48C1947.97 1925.17 1944.87 1928.68 1942.91 1933.02H1930.51L1939.81 1873.5H1996.69V1884.81H1949.88L1943.53 1917.83C1946.11 1914.83 1949.57 1912.35 1953.91 1910.39C1958.25 1908.43 1963.26 1907.44 1968.95 1907.44C1974.32 1907.44 1979.18 1908.43 1983.52 1910.39C1987.86 1912.25 1991.58 1914.88 1994.68 1918.29C1997.88 1921.7 2000.31 1925.73 2001.96 1930.38C2003.72 1934.93 2004.6 1939.89 2004.6 1945.26C2004.6 1950.53 2003.77 1955.49 2002.12 1960.14C2000.46 1964.79 1997.98 1968.93 1994.68 1972.54C1991.47 1976.06 1987.55 1978.85 1982.9 1980.91C1978.25 1982.88 1972.93 1983.86 1966.93 1983.86ZM2028.78 1982L2071.87 1884.66H2012.35V1873.5H2085.2V1883.26L2042.57 1982H2028.78ZM2103.11 1982.78C2100.73 1982.78 2098.66 1981.95 2096.91 1980.29C2095.25 1978.54 2094.43 1976.47 2094.43 1974.09C2094.43 1971.72 2095.25 1969.7 2096.91 1968.05C2098.66 1966.4 2100.73 1965.57 2103.11 1965.57C2105.48 1965.57 2107.5 1966.4 2109.15 1968.05C2110.81 1969.7 2111.63 1971.72 2111.63 1974.09C2111.63 1976.47 2110.81 1978.54 2109.15 1980.29C2107.5 1981.95 2105.48 1982.78 2103.11 1982.78ZM2103.11 1920.93C2100.73 1920.93 2098.66 1920.1 2096.91 1918.45C2095.25 1916.69 2094.43 1914.63 2094.43 1912.25C2094.43 1909.87 2095.25 1907.86 2096.91 1906.2C2098.66 1904.55 2100.73 1903.73 2103.11 1903.73C2105.48 1903.73 2107.5 1904.55 2109.15 1906.2C2110.81 1907.86 2111.63 1909.87 2111.63 1912.25C2111.63 1914.63 2110.81 1916.69 2109.15 1918.45C2107.5 1920.1 2105.48 1920.93 2103.11 1920.93ZM2136.84 1982V1888.07L2119.33 1891.94V1882.95L2141.18 1873.5H2150.02V1982H2136.84Z" fill="black"/>
<defs>
<clipPath id="clip0_6467_1482">
<rect width="472" height="392" fill="white" transform="translate(936 151.992)"/>
</clipPath>
</defs>
</svg>
